<?xml version="1.0" standalone="no"?>
<svg class="map1" version="1.0" xmlns="http://www.w3.org/2000/svg"
 width="100%" height="100%" viewBox="0 0 1462.000000 1254.000000"
 preserveAspectRatio="xMidYMid meet">
<g class="full-group" transform="translate(0.000000,1254.000000) scale(0.100000,-0.100000)"
fill="#000000" stroke="none">
<g class="huone">
<path d="M1420 10154 l0 -1724 2168 0 2167 0 -3 -220 -3 -220 46 0 45 0 0
-216 0 -217 53 7 c123 16 235 77 304 167 52 67 78 124 93 207 l13 62 208 0
209 0 0 1938 0 1938 -2650 1 -2650 1 0 -1724z m3250 1701 c0 -13 26 -15 175
-15 149 0 175 -2 175 -15 0 -13 -26 -15 -176 -15 -162 0 -175 -1 -172 -17 3
-16 20 -18 161 -21 l157 -3 0 -34 0 -35 -162 -2 -163 -2 180 -6 180 -5 3 -27
3 -28 -425 0 c-334 0 -426 3 -427 13 0 10 -2 10 -6 0 -3 -10 -49 -13 -178 -13
l-173 0 1 108 2 107 195 0 195 0 3 -77 3 -78 187 2 187 2 -162 3 -163 3 0 35
0 34 157 3 c140 3 158 5 161 20 3 16 -12 18 -172 20 -238 4 -238 21 -1 28 163
5 203 12 120 23 -16 2 7 5 53 6 67 1 82 -2 82 -14z m-2267 -52 c8 -63 8 -1176
0 -1225 l-6 -38 -448 0 -449 0 -2 178 -3 177 -2 -178 c-3 -163 -5 -178 -21
-175 -16 3 -17 37 -20 476 -2 465 -2 472 18 472 18 0 20 -8 23 -147 2 -126 3
-117 5 65 l2 212 90 0 90 0 0 90 0 90 208 2 207 3 -182 2 c-143 3 -183 6 -183
17 0 7 3 16 7 19 3 4 154 7 333 7 l327 0 6 -47z m3847 -63 l0 -40 -160 0 -160
0 0 40 0 40 160 0 160 0 0 -40z m40 -80 l0 -30 -200 0 -200 0 0 23 c0 13 3 27
7 30 3 4 93 7 200 7 l193 0 0 -30z m-3800 -320 l1 -270 -35 0 -35 0 0 270 0
270 34 0 34 0 1 -270z m4174 245 c3 -11 6 -795 6 -1742 l0 -1723 -148 0 c-82
0 -271 3 -420 7 l-272 6 0 344 0 343 182 0 c100 0 179 3 176 6 -4 3 -84 6
-180 7 l-173 2 -3 194 -2 194 50 -5 c106 -10 235 -103 290 -207 11 -20 19 -30
20 -22 0 23 -58 107 -102 146 -51 46 -145 91 -209 100 l-49 7 0 129 0 129
-745 0 -745 0 0 -495 0 -495 -530 0 -530 0 0 495 0 495 -32 0 -33 0 3 -495 3
-495 -766 0 -765 0 0 958 0 959 632 7 c504 5 633 4 640 -6 6 -11 10 -10 16 0
6 9 38 12 123 10 l114 -3 3 -139 c2 -93 -1 -143 -9 -152 -9 -11 -9 -14 1 -14
8 0 11 -27 9 -97 l-3 -98 29 0 30 0 3 283 2 282 -385 0 -385 0 0 548 c0 302 3
551 6 555 4 3 937 5 2075 4 2062 -2 2068 -2 2073 -22z m-4179 -780 l0 -220
-32 -3 -33 -3 0 226 0 226 33 -3 32 -3 0 -220z m-135 -315 l0 -40 -312 2 -313
3 -3 38 -3 37 315 0 316 0 0 -40z m-680 -1141 l0 -250 -27 3 -28 3 -3 248 -2
247 30 0 30 0 0 -251z m-70 1 l0 -210 -40 0 -40 0 0 210 0 210 40 0 40 0 0
-210z m3855 80 c4 -6 65 -10 151 -10 l144 0 0 -310 0 -310 -60 0 -60 0 0 -151
c0 -97 -4 -148 -10 -144 -5 3 -10 2 -10 -4 0 -7 -50 -8 -147 -4 -82 3 -349 8
-595 10 l-448 3 0 76 0 75 21 -20 c21 -19 40 -19 68 3 8 6 47 11 87 11 78 0
90 5 80 31 -6 15 -9 15 -30 -5 -22 -21 -27 -21 -65 -10 -38 11 -44 10 -71 -9
-16 -12 -34 -22 -39 -22 -11 0 -51 48 -51 61 0 13 84 11 96 -1 8 -8 15 -6 24
5 11 13 11 19 -3 33 -11 10 -17 12 -17 4 0 -8 -17 -12 -50 -12 l-50 0 0 105 0
105 211 0 c210 0 211 0 217 -22 6 -23 6 -23 12 2 4 14 5 28 3 33 -2 4 -103 7
-224 7 l-219 0 0 53 0 52 103 -1 c136 -2 172 3 207 33 36 30 40 77 10 116 -26
32 -82 43 -217 43 l-103 -1 0 83 0 82 369 0 c236 0 372 4 376 10 4 6 63 10
145 10 82 0 141 -4 145 -10z m-772 -201 c28 -7 42 -19 54 -44 15 -31 15 -36
-1 -60 -23 -34 -54 -45 -132 -45 l-64 0 0 73 c0 41 3 77 7 80 10 11 94 8 136
-4z m1595 -1181 c-3 -23 -4 -23 -198 -24 -107 -1 -201 1 -207 3 -7 3 -13 14
-13 24 0 18 11 19 211 19 l210 0 -3 -22z m2 -77 c0 -16 -9 -58 -20 -94 -41
-132 -153 -240 -290 -281 -30 -9 -69 -16 -87 -16 l-33 0 0 185 c0 118 4 193
12 210 l11 25 204 0 203 0 0 -29z"/>
<a className="anturi" xlinkTitle="anturi" xlinkHref="https://www.uef.fi">
<path d="M2750 11529 c-85 -36 -128 -147 -86 -227 35 -68 102 -100 193 -89
151 17 196 207 70 301 -31 23 -136 32 -177 15z"/>
</a>
</g>
<g class="huone">
<path d="M6730 9938 l0 -1938 195 0 195 0 5 -27 c15 -78 28 -122 47 -161 29
-60 119 -156 182 -191 50 -29 156 -61 203 -61 l23 0 2 218 3 217 278 3 277 2
0 -35 0 -35 325 0 325 0 0 1973 0 1973 -1030 0 -1030 -1 0 -1937z m1268 1920
c-2 -10 39 -14 175 -16 148 -2 177 -5 177 -17 0 -13 -27 -15 -174 -15 -140 0
-175 -3 -179 -14 -3 -8 -3 -17 0 -20 4 -3 78 -6 165 -6 l158 0 0 -35 0 -35
-167 -2 -168 -2 185 -6 185 -5 3 -27 3 -28 -425 0 c-334 0 -426 3 -427 13 0
10 -2 10 -6 0 -3 -10 -49 -13 -178 -13 l-174 0 2 108 2 107 195 0 195 0 0 -78
0 -77 190 1 c218 2 211 7 -15 11 l-155 3 -3 32 -3 33 178 2 c159 3 178 5 181
20 3 16 -12 18 -174 20 -131 2 -178 6 -182 16 -3 9 37 12 179 12 113 0 179 4
174 9 -6 5 -26 11 -45 14 -19 2 2 5 48 5 61 2 81 -1 80 -10z m-821 -260 c7 -6
13 -6 13 -2 0 5 331 9 765 9 l765 0 0 -1247 0 -1248 -540 0 -540 0 0 -119 0
-118 -54 -6 c-113 -11 -246 -109 -300 -220 -27 -54 -55 -172 -44 -183 4 -3 94
-5 202 -5 l196 1 0 -163 0 -164 -420 -7 c-230 -4 -424 -5 -429 -2 -15 10 -12
3469 3 3479 17 11 369 7 383 -5z m983 -2558 c0 -6 100 -10 280 -10 l280 0 0
-82 0 -83 -108 0 c-59 0 -126 -4 -149 -8 -82 -16 -112 -101 -53 -150 33 -28
76 -35 217 -33 l93 1 0 -53 0 -53 -225 3 -225 3 0 -223 0 -222 -272 2 -273 3
-3 448 -2 447 69 0 c39 0 73 5 76 10 4 6 65 10 151 10 89 0 144 -4 144 -10z
m-520 -375 l0 -195 -191 0 -192 0 7 57 c17 144 119 262 271 315 27 10 62 17
78 18 l27 0 0 -195z m960 105 l0 -80 -65 0 c-100 0 -155 38 -141 96 11 41 61
64 139 64 l67 0 0 -80z m-204 -222 c22 -10 28 -10 32 0 3 9 42 12 148 12 l144
0 0 -105 0 -105 -50 0 c-33 0 -50 4 -50 12 0 8 -6 6 -17 -5 -16 -16 -16 -18 0
-34 11 -11 17 -13 17 -5 0 8 17 12 50 12 40 0 48 -3 44 -15 -4 -8 -10 -12 -15
-9 -5 3 -9 -4 -9 -15 0 -31 -19 -35 -52 -11 -28 21 -35 22 -77 12 -42 -10 -48
-9 -64 10 -13 15 -21 18 -29 10 -26 -26 45 -52 93 -33 19 7 33 6 50 -4 44 -26
49 -27 73 -21 14 3 27 14 29 24 3 9 5 -20 6 -65 l1 -83 -215 0 -215 0 0 158
c0 114 3 153 11 142 8 -11 9 -7 3 15 -9 38 -14 98 -7 107 7 12 69 9 99 -4z
m-836 -502 l0 -24 -197 1 c-109 0 -204 2 -210 5 -7 2 -13 13 -13 23 0 18 11
19 210 19 l210 0 0 -24z m10 -257 l0 -212 -57 6 c-173 18 -346 189 -369 365
l-7 52 217 0 216 0 0 -211z"/>
<a className="anturi" xlinkTitle="anturi" xlinkHref="https://www.uef.fi">
<path d="M6990 11429 c-85 -36 -128 -147 -86 -227 35 -68 102 -100 193 -89
151 17 196 207 70 301 -31 23 -136 32 -177 15z"/>
</a>
</g>
<g class="huone">
<path d="M8800 9904 l0 -1974 315 0 315 0 0 35 0 35 292 -2 291 -3 13 -63 c29
-140 111 -252 231 -315 66 -34 181 -64 209 -53 11 4 14 46 14 221 l0 215 185
0 185 0 0 1940 0 1939 -477 -2 c-263 -1 -441 -3 -395 -5 64 -2 82 -6 82 -17 0
-13 29 -15 180 -15 153 0 180 -2 180 -15 0 -13 -27 -15 -179 -15 -165 0 -179
-1 -177 -17 3 -16 19 -18 165 -21 l162 -3 -3 -32 -3 -32 -165 -5 -165 -6 183
-2 182 -2 0 -30 0 -30 -419 0 c-326 0 -420 3 -424 13 -4 10 -6 10 -6 0 -1 -10
-43 -13 -175 -13 l-175 0 0 110 0 110 193 0 193 0 7 -64 c3 -35 4 -71 0 -80
-6 -14 12 -16 187 -14 l194 2 -165 6 -165 5 -3 33 -3 32 159 0 c87 0 161 3
165 6 3 3 3 12 0 20 -4 11 -39 14 -179 14 -148 0 -174 2 -174 15 0 13 26 15
175 15 110 0 175 4 175 10 0 6 -17 10 -38 10 -21 0 -41 3 -45 6 -3 3 -251 7
-551 9 l-546 4 0 -1975z m1355 1701 l630 0 5 -435 c5 -434 5 -436 28 -464 l22
-29 -20 -22 c-11 -12 -20 -30 -20 -41 0 -11 -5 -25 -12 -32 -7 -7 -8 -12 -2
-12 12 0 15 -445 4 -476 -6 -14 -5 -26 0 -29 15 -9 12 -178 -2 -194 -10 -11
-10 -14 -1 -18 10 -4 13 -61 12 -239 0 -129 3 -283 7 -343 4 -60 4 -116 1
-124 -3 -8 -8 -239 -12 -513 -5 -360 -10 -501 -18 -507 -7 -4 -21 -5 -32 -2
-11 2 -199 5 -418 5 l-397 0 2 163 3 162 198 3 197 2 0 38 c-1 20 -8 51 -16
67 -8 17 -12 23 -10 14 2 -9 8 -37 11 -63 l7 -46 -196 0 -196 0 0 196 0 197
48 -6 c26 -3 56 -9 67 -13 14 -5 17 -4 10 4 -6 6 -35 15 -65 19 l-55 8 -3 118
-3 117 -539 0 -540 0 2 1248 3 1247 193 3 c147 2 192 0 192 -10 0 -8 7 -5 18
6 15 17 28 17 142 10 69 -5 409 -9 755 -9z m-443 -2647 l2 -93 3 83 4 82 63 0
c49 0 65 -4 70 -16 3 -9 6 -211 6 -450 l0 -434 -280 0 -280 0 0 225 0 225
-225 0 -225 0 0 48 0 47 133 0 c114 1 138 4 167 20 45 27 58 68 35 111 -25 47
-59 57 -206 58 l-129 1 0 83 0 82 279 0 c176 0 282 4 286 10 4 6 65 10 151 10
l144 0 2 -92z m-558 -137 c45 -42 30 -99 -31 -122 -13 -5 -53 -9 -89 -9 l-64
0 0 73 c0 41 3 77 8 81 4 4 39 6 79 4 59 -3 76 -8 97 -27z m-2 -272 c2 -7 12
-7 31 0 16 6 44 11 64 11 l35 0 -4 -52 c-3 -29 -9 -62 -13 -73 -5 -16 -5 -17
4 -5 8 11 11 -27 11 -142 l0 -158 -215 0 -215 0 0 82 c0 77 1 81 16 60 19 -27
44 -28 85 -3 25 15 37 17 60 9 36 -13 104 2 104 22 0 8 -8 16 -17 18 -12 2
-18 -3 -18 -14 0 -15 -7 -16 -56 -10 -47 5 -60 3 -85 -15 -38 -27 -63 -19 -55
19 4 16 3 22 -2 14 -7 -10 -11 -10 -21 2 -10 12 -4 15 39 18 38 2 50 0 50 -11
0 -11 5 -9 21 5 19 17 19 19 3 31 -14 10 -19 10 -29 -4 -9 -12 -14 -13 -19 -4
-4 6 -2 19 5 27 6 8 10 17 7 19 -3 3 -11 -6 -18 -20 -9 -18 -22 -25 -42 -25
l-28 0 0 105 0 105 149 0 c97 0 151 -4 153 -11z m1305 -494 c3 -9 2 -19 -1
-23 -4 -3 -98 -7 -209 -7 -202 0 -202 0 -205 23 l-3 22 206 0 c176 0 206 -2
212 -15z m3 -266 l0 -212 -57 7 c-162 18 -314 155 -357 321 -28 104 -46 95
199 95 l215 0 0 -211z"/>
<a className="anturi" xlinkTitle="anturi" xlinkHref="https://www.uef.fi">
<path d="M9080 11449 c-85 -36 -128 -147 -86 -227 35 -68 102 -100 193 -89
151 17 196 207 70 301 -31 23 -136 32 -177 15z"/>
</a>
</g>
<g class="huone">
<path d="M10860 9938 l0 -1938 183 -1 c100 0 239 0 309 1 l127 1 6 -38 c25
-153 103 -270 226 -341 53 -30 158 -62 206 -62 l23 0 2 218 3 217 28 3 c25 3
27 1 27 -32 l0 -35 298 -3 c380 -4 362 -6 362 38 l0 34 293 2 c160 1 347 1
415 0 106 0 123 2 118 15 -3 8 -6 880 -6 1938 l0 1924 -1310 -2 -1310 -2 0
-1937z m1270 1917 c0 -13 26 -15 175 -15 149 0 175 -2 175 -15 0 -13 -26 -15
-176 -15 -162 0 -175 -1 -172 -17 3 -16 20 -18 161 -21 l157 -3 0 -34 0 -35
-162 -2 -163 -2 180 -6 180 -5 3 -27 3 -28 -420 0 c-321 0 -421 3 -421 12 0 9
-3 9 -12 0 -8 -8 -62 -12 -179 -12 l-167 0 -1 110 -1 110 195 0 195 0 0 -80 0
-80 193 2 192 2 -167 3 -168 3 0 35 0 35 158 0 c87 0 161 3 165 6 3 3 3 12 0
20 -4 11 -39 14 -179 14 -148 0 -174 2 -174 15 0 13 26 15 177 15 109 0 173 4
168 9 -6 5 -26 11 -45 14 -19 2 2 5 48 5 67 2 82 -1 82 -13z m-819 -267 c0
-22 1 -22 8 -3 8 20 18 20 947 20 l939 0 3 -1247 2 -1248 -542 -2 -542 -3 2
-80 c4 -104 -5 -155 -26 -156 -12 0 -10 -3 6 -9 22 -9 22 -10 20 -197 l-3
-188 -198 0 c-108 0 -197 -3 -197 -7 0 -5 87 -8 194 -8 l194 0 6 -31 c3 -17 6
-92 6 -165 l0 -134 -360 0 -360 0 -1 28 -2 27 -4 -27 -4 -28 -240 0 -239 1 0
454 0 455 85 0 c81 0 85 -1 86 -22 l2 -23 4 23 c4 22 7 22 159 22 l154 0 0 30
c0 23 -5 31 -22 35 -39 8 -188 10 -188 3 0 -14 -40 -9 -41 5 0 10 -2 10 -6 0
-3 -10 -38 -13 -123 -13 -98 0 -119 3 -124 16 -11 28 -7 1844 4 1844 6 0 10
113 10 318 0 175 3 322 7 325 3 4 91 7 195 7 l188 0 1 -22z m1334 -2548 c4 -6
110 -10 286 -10 l279 0 0 -91 c0 -74 -2 -89 -13 -81 -8 7 -57 10 -136 7 -141
-5 -179 -19 -195 -73 -12 -43 4 -76 46 -98 39 -20 264 -30 285 -12 10 8 13 -1
13 -46 l0 -56 -225 0 -225 0 0 -225 0 -225 -280 0 -280 0 0 450 0 450 75 0
c43 0 75 4 75 10 0 6 55 10 144 10 86 0 147 -4 151 -10z m440 -270 l0 -75 -50
-3 c-27 -2 -64 -1 -81 2 -68 13 -97 82 -51 123 31 29 44 32 117 30 l65 -2 0
-75z m110 0 l0 -75 -45 0 -45 0 -3 64 c-4 87 -1 93 50 89 l43 -3 0 -75z m-318
-221 c19 -7 29 -7 31 0 2 7 56 11 153 11 l149 0 0 -105 0 -105 -26 0 c-14 0
-33 8 -42 18 -10 9 -14 13 -9 8 11 -16 8 -26 -8 -26 -8 0 -15 5 -15 10 0 7 -7
7 -21 0 -20 -11 -20 -12 -3 -32 11 -11 20 -15 22 -9 2 6 24 11 49 11 31 0 43
-4 40 -12 -2 -7 -9 -12 -15 -11 -6 2 -9 -3 -6 -11 3 -7 -2 -18 -10 -25 -13
-11 -21 -9 -47 10 -28 19 -36 21 -76 12 -40 -9 -47 -8 -64 10 -15 16 -22 18
-31 9 -28 -28 19 -39 136 -32 10 1 26 -6 35 -14 24 -22 57 -20 75 5 13 19 14
14 14 -60 l0 -81 -214 0 -214 0 0 151 c0 107 3 148 11 143 8 -4 8 -1 2 12 -6
11 -11 43 -12 72 l-2 52 35 0 c19 0 47 -5 63 -11z m-955 -484 l-4 -35 -209 0
c-199 0 -209 1 -209 19 0 11 6 22 13 24 9 4 8 8 -3 16 -11 8 46 11 200 11
l216 0 -4 -35z m6 -279 l2 -209 -57 6 c-109 11 -231 89 -303 193 -33 47 -70
150 -70 194 l0 30 213 -2 212 -3 3 -209z"/>
<a className="anturi" xlinkTitle="anturi" xlinkHref="https://www.uef.fi">
<path d="M12770 11429 c-85 -36 -128 -147 -86 -227 35 -68 102 -100 193 -89
151 17 196 207 70 301 -31 23 -136 32 -177 15z"/>
</a>
</g>
<g class="huone">
<a className="anturi" xlinkTitle="anturi" xlinkHref="https://www.uef.fi">
<path d="M11385 8981 c-3 -6 -9 -162 -12 -347 -6 -327 -6 -336 13 -332 17 3
19 13 19 106 0 56 3 102 8 102 13 0 4 473 -10 477 -6 2 -14 -1 -18 -6z"/>
</a>
<path d="M1420 7495 l0 -925 2205 0 2205 0 0 204 0 203 57 6 c84 9 189 64 253
133 76 84 114 168 122 272 l3 43 -215 2 -215 2 -3 273 -2 272 -45 0 -45 0 0
220 0 220 -2160 0 -2160 0 0 -925z m3072 429 l3 -456 202 2 201 1 7 -51 c16
-113 111 -247 213 -299 46 -23 143 -51 179 -51 l23 0 0 200 0 200 190 0 190 0
0 -205 c0 -130 4 -205 10 -205 6 0 10 -78 10 -215 l0 -215 -1387 1 c-764 1
-1669 5 -2013 8 l-625 6 -3 116 c-3 114 -2 117 20 124 l23 8 -22 4 -22 4 -1
733 c0 403 3 736 7 739 3 4 633 7 1400 7 l1393 0 2 -456z m214 437 c-20 -22
-20 -50 -2 -76 9 -13 13 -44 12 -87 -1 -71 13 -103 36 -80 9 9 7 17 -11 33
-14 13 -20 27 -16 38 18 45 17 71 -4 99 -11 17 -21 35 -21 40 0 13 29 24 41
16 5 -3 8 0 7 7 -2 6 3 14 10 16 8 3 12 -9 12 -40 0 -25 -5 -47 -11 -49 -8 -3
-5 -10 6 -22 17 -16 19 -16 34 -1 12 13 13 19 4 22 -8 3 -13 24 -13 54 l0 49
105 0 105 0 0 -156 c0 -115 -3 -153 -12 -148 -8 5 -9 0 -3 -17 4 -13 10 -43
12 -66 l5 -43 -216 0 -216 0 0 209 c0 158 3 210 13 214 6 2 41 5 75 5 60 0 63
0 48 -17z m745 -3 l0 -23 9 23 c9 20 16 22 84 22 l74 0 7 -192 c4 -106 5 -222
2 -258 -3 -36 -5 -128 -6 -206 0 -77 -3 -148 -7 -157 -6 -16 -48 -17 -525 -17
l-519 0 0 48 0 47 117 -2 c127 -2 173 7 203 40 22 23 26 67 10 98 -22 39 -64
50 -201 51 l-129 0 0 49 0 49 225 0 225 0 0 225 0 225 215 0 215 0 1 -22z
m-3784 -895 l3 -601 -76 0 c-54 -1 -74 3 -71 11 3 8 21 11 51 9 27 -2 46 1 46
7 0 6 -22 11 -51 11 l-50 0 3 178 3 177 43 -1 42 -1 -2 191 -2 191 -6 -180
c-4 -99 -8 -181 -9 -182 0 -2 -16 -3 -35 -3 l-35 0 -1 371 c0 267 3 375 11
385 8 10 8 14 0 14 -6 0 -11 5 -11 10 0 6 16 10 35 10 23 0 35 -4 34 -12 -1
-7 1 -20 4 -28 4 -8 8 -85 10 -170 l3 -155 2 182 c2 186 4 195 42 190 13 -2
15 -78 17 -604z m-177 416 l5 -174 5 180 c3 102 7 -83 8 -426 l2 -606 -30 5
-30 4 2 197 c3 195 3 196 26 199 22 3 22 4 20 185 l-2 182 -6 -174 c-3 -119
-9 -176 -17 -178 -8 -3 -12 50 -15 194 -5 315 2 595 16 590 7 -2 13 -60 16
-178z m3355 -73 c60 -26 71 -72 26 -117 -27 -27 -35 -29 -105 -29 l-76 0 0 74
c0 50 4 76 13 79 26 11 109 6 142 -7z m462 -530 l2 -189 -54 6 c-119 12 -240
99 -295 211 -29 60 -53 150 -42 161 3 3 92 4 196 3 l191 -3 2 -189z m940 96
c-22 -189 -179 -349 -370 -377 l-47 -7 0 216 0 216 211 0 212 0 -6 -48z m-447
-172 c0 -121 -4 -210 -9 -210 -40 0 -41 5 -41 209 0 109 3 201 7 204 3 4 15 7
25 7 17 0 18 -13 18 -210z"/>
<a className="anturi" xlinkTitle="anturi" xlinkHref="https://www.uef.fi">
<path d="M1940 8279 c-85 -36 -128 -147 -86 -227 35 -68 102 -100 193 -89 151
17 196 207 70 301 -31 23 -136 32 -177 15z"/>
</a>
</g>
<g class="huone">
<path d="M8108 7493 l-3 -218 -730 -2 c-401 -1 -749 -5 -772 -8 l-43 -6 0
-360 c0 -233 4 -359 10 -359 6 0 10 67 10 180 l0 180 30 0 c30 0 30 -1 30 -55
0 -30 5 -55 10 -55 6 0 10 -11 10 -25 0 -34 18 -32 23 3 2 15 4 -20 4 -78 1
-58 -1 -97 -4 -87 -12 44 -18 6 -19 -110 0 -87 -4 -128 -12 -131 -8 -2 -12
-45 -12 -143 l0 -139 -30 0 -30 0 0 80 c0 47 -4 80 -10 80 -6 0 -10 -52 -10
-135 l0 -135 49 0 c27 0 63 -3 80 -6 l32 -7 -2 -918 -1 -919 -44 0 -43 0 -3
-157 c-2 -87 -2 -326 0 -530 2 -321 5 -373 17 -373 13 0 15 50 15 370 l0 370
25 0 25 0 1 -177 c1 -98 0 -265 -1 -370 -1 -106 2 -193 7 -193 4 0 15 4 23 10
9 6 17 5 22 -3 6 -9 10 -9 17 2 6 9 11 10 15 2 22 -36 26 14 26 359 l0 370 35
0 35 0 0 -370 c0 -237 4 -370 10 -370 6 0 11 142 12 393 l3 392 1025 2 c564 2
1359 3 1768 3 l742 0 0 1710 0 1710 -914 0 c-502 0 -928 3 -945 6 -26 6 -31
11 -31 36 0 40 -35 141 -67 191 -35 56 -101 117 -160 150 -53 28 -150 57 -195
57 l-28 0 -2 -217z m129 182 c121 -36 212 -114 268 -229 19 -39 37 -95 41
-123 l7 -53 -217 0 -216 0 0 210 0 210 33 0 c18 0 56 -7 84 -15z m308 -450 c0
-19 -8 -20 -207 -23 -197 -2 -208 -1 -208 16 0 10 3 22 7 26 4 3 97 5 207 4
193 -3 201 -4 201 -23z m-985 -120 l0 -95 -462 2 -463 3 -3 93 -3 92 466 0
465 0 0 -95z m823 35 l317 0 0 -144 0 -144 25 -4 c13 -3 27 -3 30 0 3 3 5 70
5 149 l0 143 815 0 815 0 -2 -1507 -3 -1508 -130 -1 c-71 -1 -679 -3 -1350 -5
l-1220 -3 -4 399 c-2 220 -4 461 -5 537 0 75 1 138 4 141 7 6 348 11 698 9
l292 -2 0 -37 c0 -40 15 -36 23 7 2 14 5 -44 6 -127 l1 -153 30 0 29 0 3 168
c2 92 2 426 0 744 l-3 576 -78 -5 c-43 -3 -94 -3 -114 1 -31 6 -36 11 -42 44
-35 199 -178 336 -372 358 l-43 5 0 -199 c0 -199 0 -200 -22 -206 -36 -9 -98
-7 -98 4 0 6 -58 10 -154 10 l-155 0 5 253 c3 138 6 262 8 275 2 12 -1 22 -5
22 -14 0 -11 184 4 199 9 10 51 12 192 7 99 -3 323 -6 498 -6z m-829 -256 c8
-20 8 -768 0 -788 -5 -14 -53 -16 -431 -16 -253 0 -423 4 -421 9 2 5 97 95
212 201 208 190 209 191 230 172 11 -10 105 -96 208 -190 169 -155 198 -180
198 -169 0 2 -92 88 -205 191 -113 103 -205 191 -205 195 0 5 92 93 205 196
113 103 205 189 205 192 0 7 -50 -33 -100 -81 -75 -71 -294 -270 -312 -284
-15 -12 -41 9 -227 180 -116 106 -211 196 -211 200 0 5 191 8 424 8 377 0 425
-2 430 -16z m-742 -115 c57 -52 147 -136 201 -184 53 -49 97 -92 97 -96 0 -7
-397 -372 -411 -377 -5 -2 -9 45 -9 106 0 88 3 111 15 116 12 4 15 27 15 115
0 69 4 111 11 113 8 3 13 134 9 248 0 6 -11 10 -25 10 -20 0 -25 5 -25 26 0
14 4 24 9 22 5 -1 56 -46 113 -99z m1439 -31 c81 -33 121 -61 167 -116 53 -63
82 -128 89 -198 l6 -54 -194 2 -194 3 -3 193 -2 192 38 0 c22 0 64 -10 93 -22z
m441 -558 c4 -63 4 -290 0 -504 -6 -357 -8 -390 -25 -400 -13 -8 -20 -8 -26 3
-6 9 -11 10 -15 2 -4 -6 -30 -10 -59 -9 l-52 1 1 124 c2 108 -1 129 -20 165
-35 70 -100 72 -149 6 -17 -23 -20 -43 -20 -162 l-1 -136 -53 0 -53 0 0 225 0
225 -225 0 -224 0 -3 58 -3 57 -37 -3 -38 -4 0 236 0 236 498 -2 497 -3 7
-115z m-1817 -277 c-13 -96 -10 -92 -73 -86 -32 3 -58 7 -60 8 -2 2 6 22 18
45 12 23 19 44 16 47 -2 3 -12 -9 -21 -26 -8 -17 -18 -31 -20 -31 -3 0 -5 20
-5 45 l0 45 76 0 76 0 -7 -47z m375 35 c0 -6 -9 -26 -21 -44 -11 -19 -18 -34
-15 -34 3 0 17 20 32 45 l26 45 119 0 c65 0 119 -3 119 -6 0 -4 -124 -144
-276 -313 -11 -12 -15 -12 -27 1 -8 8 -29 27 -47 42 -33 27 -33 28 -17 59 9
18 28 51 42 75 14 23 24 42 21 42 -3 0 -24 -31 -47 -70 -23 -38 -44 -70 -46
-70 -3 0 -29 14 -58 30 l-53 30 29 77 c16 41 28 78 26 80 -3 2 -15 -25 -27
-59 -38 -104 -30 -98 -100 -76 -54 18 -61 23 -57 42 3 11 9 42 12 68 l7 47
179 0 c124 0 179 -3 179 -11z m310 -112 l0 -125 -60 -46 c-33 -25 -60 -48 -60
-51 0 -3 27 16 60 41 l60 46 0 -103 c0 -69 -4 -108 -12 -117 -10 -11 -10 -13
0 -7 9 6 12 -14 12 -83 0 -66 -3 -91 -12 -91 -10 0 -10 -2 -1 -8 9 -6 12 -91
12 -335 0 -180 -2 -327 -5 -327 -5 0 -166 80 -172 85 -4 4 30 118 38 125 3 3
6 30 7 60 6 225 -2 340 -31 434 -8 27 -13 53 -10 57 2 4 0 9 -5 11 -4 1 -21
27 -35 56 -27 53 -27 55 -9 75 18 22 18 22 -3 4 -20 -17 -22 -16 -63 33 l-43
50 29 35 c103 125 271 304 286 304 15 1 17 -11 17 -123z m-737 -26 c24 0 27
-4 28 -32 2 -32 2 -32 6 -5 4 27 7 29 40 22 58 -11 83 -23 83 -42 0 -14 2 -15
9 -5 7 11 19 9 60 -12 28 -15 51 -31 51 -36 0 -5 -19 -40 -41 -77 -51 -84 -54
-90 -43 -80 5 5 27 39 50 75 22 37 46 67 53 67 15 0 78 -45 85 -61 2 -6 -30
-49 -72 -96 l-76 -86 -28 21 c-18 15 -27 29 -24 44 2 18 0 19 -14 11 -12 -8
-25 -6 -48 6 -29 15 -31 18 -21 44 44 113 59 156 56 159 -2 2 -19 -36 -37 -84
-18 -49 -34 -90 -36 -91 -1 -2 -19 1 -40 8 -36 12 -36 12 -31 59 15 115 15
121 -1 41 -10 -47 -21 -84 -25 -82 -4 1 -21 2 -37 2 l-30 0 20 41 c26 50 20
77 -6 29 l-19 -35 -3 43 c-2 23 -2 61 0 85 l3 42 18 -33 c26 -47 33 -33 8 16
-22 43 -18 56 14 48 11 -3 32 -6 48 -6z m1247 -109 c0 -6 12 -6 32 0 18 5 48
9 67 9 l34 0 -6 -47 c-2 -27 -8 -57 -12 -67 -6 -14 -5 -17 3 -12 9 5 12 -32
12 -148 l0 -156 -105 0 -105 0 0 50 c0 28 4 50 10 50 5 0 7 7 4 15 -4 8 -12
15 -19 15 -7 0 -18 -7 -25 -15 -9 -10 -9 -15 -1 -15 7 0 11 -20 11 -50 0 -41
-3 -48 -16 -43 -8 3 -13 11 -10 18 3 8 -2 11 -15 8 -29 -8 -34 22 -8 58 20 28
21 36 11 73 -9 37 -8 43 11 64 16 17 18 25 9 34 -24 24 -37 -9 -35 -87 1 -54
-2 -77 -13 -85 -21 -18 -17 -57 7 -74 20 -14 15 -15 -60 -15 l-81 0 0 214 0
215 150 0 c86 0 150 -4 150 -9z m-797 -155 c17 -24 18 -32 7 -50 -10 -17 -10
-19 1 -8 7 6 17 12 22 12 14 0 65 -120 87 -204 24 -94 29 -305 8 -307 -10 0
-10 -2 0 -6 17 -7 15 -79 -3 -161 -25 -106 -19 -105 -139 -45 l-105 52 11 38
c6 21 15 41 22 45 8 6 7 8 -1 8 -8 0 -13 15 -13 40 0 38 1 40 33 41 l32 1 -30
7 c-25 5 -31 11 -33 40 -2 20 2 37 10 42 10 7 10 9 0 9 -9 0 -12 16 -11 53 0
28 -4 68 -10 86 -8 27 -8 37 2 43 9 6 8 8 -3 8 -9 0 -22 16 -29 35 -10 30 -10
39 1 53 12 15 11 16 -5 3 -15 -12 -20 -12 -32 5 -37 47 -37 47 43 137 84 96
83 96 135 23z m1196 45 c24 -24 33 -69 29 -136 l-3 -50 -75 0 -75 0 -3 45 c-5
61 5 103 29 134 25 32 70 35 98 7z m-1580 -57 c3 -3 -4 -33 -17 -66 -12 -34
-20 -63 -18 -65 2 -2 13 23 26 57 12 33 26 60 31 60 16 0 59 -23 59 -32 0 -16
-142 -248 -151 -248 -15 0 -10 36 11 91 12 28 19 53 17 56 -3 2 -15 -24 -27
-57 -22 -59 -35 -78 -47 -66 -5 5 31 226 43 270 5 14 12 17 37 12 17 -3 33 -9
36 -12z m141 -88 c13 -17 -2 -37 -134 -181 -78 -85 -73 -49 15 97 74 124 81
129 119 84z m60 -79 c0 -6 -8 -20 -17 -31 -18 -21 -18 -21 3 -3 19 16 22 16
34 2 7 -9 13 -28 14 -44 1 -16 4 -27 7 -25 15 9 21 -38 26 -183 5 -144 4 -153
-13 -154 -11 0 -14 -3 -6 -6 14 -5 16 -51 3 -71 -6 -11 -36 0 -132 48 -68 34
-125 64 -127 65 -2 2 -5 17 -7 34 -4 29 -2 31 28 33 l32 1 -32 4 c-31 4 -47
22 -20 24 10 0 10 2 0 6 -7 2 -13 11 -13 19 0 8 6 14 13 14 8 0 8 3 -2 9 -12
8 -12 12 -2 25 10 12 11 16 1 16 -7 0 -10 8 -7 20 3 12 1 18 -5 14 -5 -4 -8 2
-6 14 1 11 43 65 93 121 l89 101 23 -22 c13 -12 23 -26 23 -31z m-295 -127
c51 -32 65 -72 65 -192 0 -84 -4 -109 -20 -135 -20 -33 -50 -56 -87 -68 l-23
-6 0 210 c0 235 -1 232 65 191z m335 -420 c0 -16 -23 -60 -32 -60 -4 0 -8 -6
-8 -14 0 -7 -10 -26 -22 -41 l-22 -28 -79 84 -79 84 73 -83 c77 -88 81 -104
31 -127 -12 -5 -22 -13 -22 -17 0 -4 -14 -15 -31 -24 -24 -12 -34 -13 -39 -4
-5 8 -9 5 -12 -8 -6 -20 -60 -38 -66 -21 -2 5 -11 2 -19 -7 -9 -8 -27 -14 -42
-12 l-26 3 -3 143 c-2 118 0 142 12 142 10 0 20 -34 37 -127 13 -69 25 -121
27 -115 2 6 -6 59 -17 119 -25 128 -25 133 -7 133 8 0 17 -6 19 -12 3 -7 6 -3
6 10 2 39 18 24 71 -63 28 -47 54 -85 57 -85 3 0 -1 10 -9 23 -51 80 -88 147
-88 159 0 8 6 23 14 33 14 19 15 19 38 0 l23 -20 -22 26 c-46 51 -20 48 107
-16 72 -36 130 -69 130 -75z m229 -106 c5 -4 -50 -114 -57 -114 -3 0 -15 8
-26 18 -21 17 -21 17 -3 -4 23 -28 22 -32 -21 -82 l-37 -44 -78 85 c-42 47
-77 89 -77 94 0 5 14 23 30 41 17 18 30 38 30 43 0 6 7 23 15 39 l15 30 103
-51 c56 -28 104 -53 106 -55z m115 -56 l85 -42 0 -238 c1 -280 3 -276 -97
-170 -53 56 -55 57 -13 9 28 -32 51 -63 51 -68 0 -5 -51 -9 -113 -9 l-112 0
-33 55 c-18 30 -35 55 -38 55 -3 0 7 -20 21 -43 14 -24 25 -49 25 -55 0 -8
-28 -12 -89 -12 l-89 0 -22 60 c-13 34 -24 59 -27 57 -2 -3 5 -28 17 -56 24
-62 22 -63 -76 -59 -63 3 -69 5 -75 28 l-7 25 -1 -28 -1 -28 -72 3 -73 3 -3
54 c-2 30 0 57 5 62 4 4 34 10 65 14 l56 7 11 -43 10 -44 -5 45 -4 45 61 18
c34 10 62 17 63 15 1 -2 7 -14 13 -28 11 -24 11 -24 9 8 -1 29 4 36 47 60 54
30 43 34 93 -33 8 -11 4 -1 -8 22 l-23 43 45 40 45 40 94 -98 94 -97 -87 96
c-47 53 -86 100 -86 104 0 17 76 104 88 100 7 -3 10 0 6 6 -7 12 44 119 57
119 5 0 47 -19 93 -42z m-274 -175 c0 -12 -68 -73 -82 -73 -3 0 -33 44 -66 99
l-60 99 27 26 26 27 77 -83 c43 -46 78 -88 78 -95z m-156 23 c31 -52 56 -98
56 -103 0 -9 -83 -53 -99 -53 -5 0 -19 27 -31 60 -13 34 -24 59 -27 57 -2 -3
5 -28 17 -56 11 -28 20 -58 20 -65 0 -11 -63 -35 -104 -40 -5 -1 -17 35 -27
79 -9 44 -17 71 -18 60 0 -11 6 -48 13 -82 l13 -63 -32 -6 c-17 -3 -45 -4 -61
-2 l-29 3 -3 104 c-3 116 4 134 52 129 25 -2 32 -9 38 -33 7 -30 7 -30 5 4 -2
31 1 35 36 47 l38 13 19 -42 c22 -50 27 -42 5 9 -14 34 -14 35 18 54 18 11 35
20 38 20 4 0 32 -42 63 -94z m1364 -428 l3 -27 -200 -1 -201 0 0 30 0 30 198
-2 197 -3 3 -27z m1402 15 c1 -17 1 -17 11 0 9 15 29 17 179 17 l170 0 0 -76
c0 -56 -3 -75 -12 -71 -13 4 -15 24 -7 61 2 10 -2 21 -8 23 -9 3 -13 -9 -13
-41 l0 -46 -161 0 -161 0 4 39 c3 37 1 40 -26 45 -51 10 -386 7 -386 -4 0 -6
62 -10 165 -10 l165 0 0 -35 0 -35 -365 0 -365 0 0 35 0 35 166 0 c107 0 163
3 159 10 -4 6 -75 10 -181 10 l-174 0 0 30 0 30 420 0 c393 0 420 -1 420 -17z
m-2490 -18 l0 -25 -195 0 -195 0 0 25 0 25 195 0 195 0 0 -25z m-30 -80 l0
-35 -165 0 -165 0 0 35 0 35 165 0 165 0 0 -35z m981 18 c1 -17 2 -17 6 0 3
13 15 17 49 17 44 0 44 0 44 -35 0 -35 0 -35 -45 -35 -36 0 -45 4 -46 18 -1
16 -2 16 -6 0 -4 -16 -18 -18 -119 -18 l-114 0 0 35 0 35 115 0 c102 0 115 -2
116 -17z m-951 -103 l0 -40 -195 0 -195 0 0 33 c0 19 3 37 7 40 3 4 91 7 195
7 l188 0 0 -40z m2086 25 c5 -13 35 -15 180 -15 143 0 174 -3 174 -14 0 -12
-36 -15 -197 -18 -109 -1 -287 -2 -395 0 -163 3 -198 6 -198 18 0 12 30 14
175 14 149 0 175 2 175 15 0 11 11 15 40 15 27 0 43 -5 46 -15z m764 -15 l0
-30 -194 0 -194 0 -4 25 c-3 13 -3 27 0 30 3 3 92 5 199 5 l193 0 0 -30z
m-3410 -310 c0 -100 4 -160 10 -160 6 0 10 60 10 160 0 216 18 211 22 -6 4
-248 -2 -504 -13 -504 -5 0 -9 68 -9 160 0 100 -4 160 -10 160 -6 0 -10 -60
-10 -160 0 -136 -2 -160 -15 -160 -13 0 -15 44 -15 335 0 291 2 335 15 335 13
0 15 -24 15 -160z"/>
<a className="anturi" xlinkTitle="anturi" xlinkHref="https://www.uef.fi">
<path d="M9900 6999 c-85 -36 -128 -147 -86 -227 35 -68 102 -100 193 -89 151
17 196 207 70 301 -31 23 -136 32 -177 15z"/>
</a>
</g>
<g class="huone">
<path d="M12337 7703 c-4 -3 -7 -102 -7 -219 0 -163 -3 -212 -12 -211 -7 0
-428 -1 -935 -1 l-923 -2 0 -1710 0 -1710 1510 0 1510 0 2 1704 3 1703 -320 7
c-176 4 -331 9 -345 12 -22 4 -27 12 -37 64 -32 172 -162 311 -328 355 -63 16
-107 19 -118 8z m189 -52 c119 -56 206 -160 239 -286 27 -104 45 -95 -200 -95
l-215 0 0 211 0 212 56 -6 c30 -3 84 -19 120 -36z m244 -426 l0 -25 -205 0
c-179 0 -206 2 -212 16 -3 9 0 20 8 25 8 5 103 9 212 9 l197 0 0 -25z m439
-94 c12 -22 15 -177 4 -184 -5 -3 -5 -126 -1 -274 5 -198 3 -271 -5 -280 -10
-10 -226 -19 -344 -14 l-23 1 0 201 0 201 -47 -7 c-85 -12 -120 -24 -182 -66
-99 -66 -160 -156 -181 -268 -6 -30 -13 -57 -16 -60 -3 -3 -64 -6 -135 -6
l-129 0 0 -595 0 -596 35 4 c34 4 35 3 35 -31 0 -22 -6 -37 -15 -41 -22 -8
-43 3 -48 25 -4 16 -4 15 -3 -2 0 -12 9 -27 19 -33 26 -17 51 4 55 48 l3 36
490 0 489 0 0 -535 0 -535 -500 0 c-469 0 -500 1 -501 18 -1 16 -2 16 -6 0 -4
-17 -53 -18 -849 -18 l-844 0 0 1510 0 1510 815 0 815 0 0 -140 0 -140 30 0
30 0 0 140 0 140 363 2 c199 2 424 4 499 6 128 3 138 2 147 -17z m-381 -563
l-3 -193 -194 -3 -194 -2 6 54 c10 99 88 224 172 276 50 31 134 59 178 60 l37
0 -2 -192z m382 -498 l0 -230 -50 0 -50 0 0 -60 0 -60 -225 0 -225 0 0 -225 0
-225 -43 0 -43 0 0 135 c-1 120 -3 139 -21 163 -34 45 -64 58 -103 42 -46 -19
-72 -81 -68 -163 1 -34 1 -88 0 -119 l-2 -58 -80 0 c-65 0 -82 3 -87 16 -3 9
-1 24 5 34 8 13 7 21 -1 29 -9 9 -9 16 0 30 6 10 8 22 4 27 -11 12 -25 754
-14 754 4 0 8 28 7 63 0 34 1 65 3 70 3 4 227 7 499 7 l494 0 0 -230z m-409
-386 c5 -3 9 0 9 5 0 7 51 11 150 11 l151 0 -2 -215 -1 -215 -69 0 c-63 0 -85
9 -59 25 16 10 11 41 -12 70 -19 25 -20 32 -10 71 12 44 5 85 -17 99 -19 11
-25 -25 -6 -39 14 -10 16 -19 9 -47 -10 -42 -6 -69 12 -90 20 -22 17 -50 -6
-56 -11 -3 -20 -9 -20 -14 0 -5 -7 -9 -15 -9 -19 0 -22 86 -2 93 9 3 9 8 -2
21 -13 15 -15 15 -32 0 -17 -15 -17 -18 -3 -28 11 -8 14 -24 12 -51 l-3 -40
-102 -3 -103 -3 0 151 c0 91 4 149 9 145 6 -3 6 7 0 27 -5 18 -9 50 -9 72 l0
38 56 -6 c31 -3 60 -8 65 -12z m-267 -117 c17 -23 21 -43 21 -100 l0 -72 -75
0 -75 0 -3 50 c-4 68 4 107 29 134 29 31 75 25 103 -12z m-656 -1479 c9 -9 12
-9 12 0 0 10 42 12 173 10 l172 -3 2 -72 c2 -60 0 -73 -13 -73 -11 0 -14 10
-13 45 2 24 0 48 -4 51 -4 4 -7 -16 -7 -44 l0 -52 -165 0 c-178 0 -176 -1
-155 54 7 21 6 26 -5 26 -11 0 -15 -11 -15 -40 0 -22 -5 -40 -11 -40 -6 0 -9
17 -7 43 l3 42 -188 3 c-122 2 -187 -1 -187 -8 0 -6 58 -10 160 -10 l160 0 0
-35 0 -35 -360 0 -360 0 0 35 0 35 166 0 c107 0 163 3 159 10 -4 6 -77 10
-186 10 l-179 0 0 23 c0 13 3 27 7 30 3 4 191 7 418 7 306 0 414 -3 423 -12z
m-408 -163 c0 -13 26 -15 175 -15 144 0 175 -3 175 -14 0 -12 -36 -15 -195
-18 -107 -1 -283 -1 -390 0 -159 3 -195 6 -195 18 0 11 31 14 175 14 149 0
175 2 175 15 0 11 11 15 40 15 29 0 40 -4 40 -15z m768 -12 l-3 -28 -197 -3
-198 -2 0 30 0 30 201 0 200 0 -3 -27z"/>
<a className="anturi" xlinkTitle="anturi" xlinkHref="https://www.uef.fi">
<path d="M10750 6989 c-85 -36 -128 -147 -86 -227 35 -68 102 -100 193 -89
151 17 196 207 70 301 -31 23 -136 32 -177 15z"/>
</a>
</g>
<g class="huone">
<path d="M1420 5635 l0 -925 2205 0 2205 0 0 515 0 515 220 0 220 0 -6 48
c-25 209 -170 366 -371 404 l-63 12 0 178 0 178 -2205 0 -2205 0 0 -925z
m4281 470 c-2 -225 -6 -412 -8 -415 -7 -8 -252 -12 -289 -5 l-34 6 0 196 0
196 -61 -6 c-165 -15 -316 -157 -350 -328 -9 -48 -15 -58 -36 -64 -14 -3 -104
-5 -201 -5 l-177 2 -3 -451 -2 -451 -1425 0 -1424 0 -1 865 0 865 462 3 c255
1 1158 2 2008 2 l1545 0 -4 -410z m-4211 9 l5 -179 5 185 c3 106 7 -72 8 -421
l2 -606 -30 5 -30 4 0 194 0 194 25 0 25 0 -2 188 -2 187 -6 -174 c-3 -119 -9
-176 -17 -178 -8 -3 -12 50 -15 194 -5 315 2 595 16 590 7 -2 13 -61 16 -183z
m180 -414 l0 -600 -74 0 -74 0 -2 180 c0 140 2 180 12 181 10 0 10 2 1 6 -27
10 -11 23 28 23 24 0 38 -4 34 -10 -3 -5 -16 -10 -28 -10 -18 0 -19 -2 -7 -10
8 -5 23 -10 33 -10 16 0 17 16 15 213 l-2 212 -6 -165 -5 -165 -37 -3 -38 -3
0 360 0 361 40 0 40 0 3 -167 3 -168 2 188 2 187 30 0 30 0 0 -600z m4130 269
l0 -210 -22 3 c-23 3 -23 4 -26 198 -1 107 0 200 2 207 3 7 15 13 26 13 19 0
20 -6 20 -211z m153 192 c154 -53 279 -203 292 -350 l4 -51 -210 0 -209 0 0
210 0 210 33 0 c19 0 59 -9 90 -19z m-598 -286 l0 -190 -195 0 -195 0 3 30
c11 110 81 227 171 284 58 37 153 71 191 68 l25 -2 0 -190z m349 -575 c4 -171
4 -357 0 -415 l-7 -104 -313 -1 -314 0 0 225 0 225 -225 0 -225 0 0 48 0 47
117 -2 c171 -3 227 22 225 100 -2 68 -50 88 -213 89 l-129 0 0 43 c0 23 3 45
7 48 3 4 246 7 538 7 l532 0 7 -310z m-809 186 c43 -19 63 -56 47 -90 -21 -47
-57 -60 -159 -57 l-43 1 0 74 c0 50 4 76 13 79 26 11 109 6 142 -7z m149 -326
c-1 -25 -4 -56 -8 -70 -6 -19 -5 -22 3 -10 8 11 11 -28 11 -142 l0 -158 -105
0 -105 0 0 43 c0 24 5 48 10 53 8 8 6 15 -5 24 -13 11 -19 11 -33 -3 -10 -11
-12 -17 -4 -17 8 0 12 -17 12 -50 0 -40 -3 -48 -15 -44 -8 4 -12 10 -9 15 3 5
-4 9 -15 9 -31 0 -35 19 -12 51 23 31 26 55 11 94 -8 20 -6 29 10 45 24 24 26
40 5 40 -23 0 -37 -48 -30 -105 5 -40 3 -54 -9 -64 -27 -23 -19 -71 14 -84 8
-3 -22 -6 -67 -6 l-83 -1 0 215 0 215 213 -2 212 -3 -1 -45z"/>
<a className="anturi" xlinkTitle="anturi" xlinkHref="https://www.uef.fi">
<path d="M1910 6339 c-85 -36 -128 -147 -86 -227 35 -68 102 -100 193 -89 151
17 196 207 70 301 -31 23 -136 32 -177 15z"/>
</a>
</g>
<g class="huone">
<path d="M1420 2762 l0 -1938 2745 -1 2745 -1 0 1113 0 1113 -540 -5 -540 -6
0 424 c0 233 4 430 8 436 6 9 65 13 217 15 l210 3 -3 45 c-8 109 -80 249 -163
311 -57 43 -134 78 -203 91 l-66 13 0 162 0 163 -2205 0 -2205 0 0 -1938z
m2470 1889 c0 -10 -88 -125 -98 -128 -4 -2 -27 24 -52 57 -24 33 -46 58 -48
55 -2 -2 17 -29 42 -60 25 -31 46 -61 46 -65 0 -5 -17 -30 -38 -57 -42 -52
-55 -73 -49 -73 2 0 25 27 51 61 l47 60 49 -62 c28 -34 50 -59 50 -55 0 3 -21
33 -46 66 l-47 59 43 56 c24 31 47 58 51 61 10 6 12 -219 3 -253 -6 -22 -11
-23 -104 -23 -93 0 -98 1 -104 23 -8 29 -8 251 0 271 5 13 24 16 105 16 54 0
99 -4 99 -9z m284 -31 c-3 -31 -3 -32 5 -10 7 17 8 -16 5 -95 -3 -66 -5 -127
-5 -135 -1 -12 -17 -15 -90 -14 -115 1 -117 4 -117 142 0 77 3 106 14 117 9 8
11 15 5 15 -6 0 -11 4 -11 10 0 6 40 9 99 7 l99 -2 -4 -35z m589 33 l127 -6
-2 -521 -3 -521 -242 -3 -243 -2 0 130 c0 148 -11 183 -62 205 -45 18 -84 2
-108 -46 -17 -33 -20 -56 -17 -164 l2 -125 -37 0 -38 0 0 225 c0 143 -4 225
-10 225 -6 0 -10 -82 -10 -225 l0 -225 -105 0 -105 0 0 50 c0 33 4 50 12 50 8
0 6 6 -4 17 -14 14 -20 14 -33 3 -15 -12 -15 -14 -1 -22 16 -9 23 -78 10 -91
-9 -9 -60 19 -67 37 -3 8 3 26 14 40 17 22 19 34 14 81 -6 45 -4 56 9 61 20 8
21 34 1 34 -25 0 -39 -49 -26 -95 9 -34 7 -44 -9 -67 -26 -36 -25 -63 2 -82
21 -15 17 -16 -60 -16 l-82 0 0 345 0 345 290 0 290 0 0 180 0 179 88 4 c182
7 281 7 405 0z m-1153 -533 l0 -530 -23 -5 c-13 -4 -84 -5 -160 -3 l-137 3 -3
-155 c-2 -148 -3 -146 -5 49 l-2 204 -55 -6 c-177 -18 -337 -175 -362 -353 -5
-42 -7 -43 -47 -49 -22 -3 -284 -5 -581 -3 l-540 3 -3 675 c-1 371 0 681 3
688 3 9 202 12 960 12 l955 0 0 -530z m1535 490 l0 -35 278 -3 277 -2 2 -343
c5 -720 6 -1523 2 -1539 -3 -9 -16 -19 -31 -22 -14 -4 -23 -9 -21 -12 3 -2 17
0 32 6 24 9 27 8 24 -7 -3 -16 -20 -18 -161 -21 l-157 -3 0 -69 0 -70 230 0
230 0 -6 -42 c-15 -96 -66 -191 -132 -249 -20 -18 -66 -46 -102 -63 -54 -26
-77 -31 -140 -31 l-75 0 -3 -502 -2 -503 -433 0 c-237 0 -613 -2 -835 -5
l-403 -5 -9 23 -9 22 0 -24 c-1 -17 -5 -22 -17 -17 -9 3 -276 6 -595 6 l-579
0 0 585 0 585 -410 0 -410 0 0 470 0 470 596 0 597 0 -5 45 c-16 140 74 295
211 364 62 32 161 55 175 41 5 -5 7 -108 4 -229 l-4 -221 38 0 38 0 0 160 0
160 790 0 790 0 0 -160 c0 -90 4 -160 9 -160 19 0 41 12 36 21 -3 4 -3 170 1
369 l7 360 31 0 c17 1 54 9 82 18 54 19 174 91 174 105 0 5 14 25 30 46 38 47
68 124 76 196 l7 56 -139 -1 c-76 -1 -167 -1 -201 0 l-63 0 0 135 0 136 88 -3
87 -3 0 -35z m209 -292 c-25 -160 -142 -293 -296 -334 -95 -25 -88 -40 -88
181 l0 195 195 0 195 0 -6 -42z m446 -179 l0 -210 -22 3 c-23 3 -23 4 -26 198
-1 107 0 200 2 207 3 7 15 13 26 13 19 0 20 -6 20 -211z m209 170 c132 -65
239 -224 241 -356 l0 -23 -210 0 -210 0 0 211 0 212 57 -6 c33 -4 83 -19 122
-38z m-4414 -449 l0 -245 -37 -3 -36 -3 -1 230 c-2 216 -1 231 16 231 17 1 17
1 0 11 -25 15 -10 31 26 27 l32 -3 0 -245z m75 0 l0 -250 -30 0 -30 0 0 243
c0 134 3 247 7 250 3 4 17 7 30 7 l23 0 0 -250z m2685 44 c27 -29 41 -95 31
-149 l-7 -35 -74 0 -74 0 -3 43 c-5 69 8 119 37 144 34 30 60 29 90 -3z m23
-206 c7 -7 12 -24 12 -38 0 -39 -18 -50 -85 -50 -34 0 -66 5 -73 12 -18 18
-15 65 6 77 24 14 125 14 140 -1z m-2708 -749 l0 -250 -27 3 -28 3 -3 248 -2
247 30 0 30 0 0 -251z m-72 4 l-3 -208 -37 -3 -38 -3 0 210 0 211 40 0 40 0
-2 -207z m5039 -260 c-4 -124 -7 -534 -7 -910 l0 -683 -590 0 -590 0 0 464 c0
255 3 477 6 494 6 27 10 30 56 34 82 8 193 71 250 143 52 64 86 142 95 216 l5
46 -47 6 c-26 4 -117 7 -201 7 -85 0 -154 3 -154 8 0 4 -3 17 -6 30 -6 22 -6
22 124 22 127 0 130 0 146 -25 18 -27 45 -32 64 -13 18 18 16 88 -3 88 -9 0
-15 9 -15 25 0 19 4 23 18 18 16 -6 16 -5 0 14 -10 11 -18 29 -18 41 0 14 7
22 18 23 16 1 16 2 0 6 -11 3 -18 14 -18 29 0 16 6 24 18 25 15 0 15 1 -1 8
-17 6 -17 8 -3 20 10 8 16 29 16 52 l0 39 422 0 421 0 -6 -227z m73 -443 l0
-200 -25 0 -25 0 0 193 c0 107 3 197 7 200 3 4 15 7 25 7 17 0 18 -13 18 -200z
m90 -5 l1 -195 -35 0 -34 0 -2 180 c0 140 2 180 12 181 10 0 10 2 1 6 -25 10
-12 23 21 23 l34 0 2 -195z m-4450 -35 l0 -40 -312 2 -313 3 -3 38 -3 37 315
0 316 0 0 -40z m-858 -192 l2 -143 3 143 4 142 449 0 449 0 6 -52 c3 -29 4
-312 3 -628 l-3 -575 -180 -5 -180 -6 178 -2 c170 -2 177 -3 177 -22 0 -20 -5
-20 -332 -18 l-333 3 0 25 c0 19 -6 25 -25 25 -24 0 -25 2 -28 88 l-3 87 -89
0 -90 0 -2 248 c-2 228 -3 233 -5 65 -3 -175 -4 -183 -23 -183 -20 0 -20 8
-20 475 0 468 0 475 20 475 19 0 20 -7 22 -142z m993 -123 l0 -220 -32 -3 -33
-3 0 226 0 226 33 -3 32 -3 0 -220z m5 -515 l1 -250 -36 0 -36 0 1 250 1 250
34 0 34 0 1 -250z m1534 -316 c6 -14 8 -15 19 -3 10 12 80 14 425 11 l412 -2
0 -25 0 -25 -174 0 c-106 0 -177 -4 -181 -10 -4 -7 50 -10 154 -10 l161 0 0
-40 0 -40 -160 0 c-134 0 -160 -2 -160 -15 0 -12 29 -15 175 -17 239 -4 236
-21 -5 -28 -102 -3 -278 -3 -392 -1 -169 3 -208 6 -208 17 0 11 32 14 175 14
148 0 175 2 175 15 0 12 -27 15 -157 17 l-158 3 -3 38 -3 37 168 0 c116 1 163
4 151 11 -10 5 -88 8 -189 7 l-171 -3 -4 -74 c-2 -40 -6 -76 -9 -80 -4 -3 -91
-6 -193 -6 l-187 0 -2 100 c-1 55 -1 105 1 111 3 7 62 11 169 13 148 2 165 1
171 -15z"/>
<a className="anturi" xlinkTitle="anturi" xlinkHref="https://www.uef.fi">
<path d="M5040 1609 c-85 -36 -128 -147 -86 -227 35 -68 102 -100 193 -89 151
17 196 207 70 301 -31 23 -136 32 -177 15z"/>
</a>
</g>
</g>
</svg>
